<?xml version="1.0" standalone="no"?>
<!DOCTYPE svg PUBLIC "-//W3C//DTD SVG 20010904//EN"
 "http://www.w3.org/TR/2001/REC-SVG-20010904/DTD/svg10.dtd">
<svg version="1.0" xmlns="http://www.w3.org/2000/svg"
 width="374.000000pt" height="412.000000pt" viewBox="0 0 374.000000 412.000000"
 preserveAspectRatio="xMidYMid meet">

<g transform="translate(0.000000,412.000000) scale(0.100000,-0.100000)"
fill="#ec1c2f" stroke="none">
<path d="M1783 4109 c-23 -5 -396 -212 -830 -460 -868 -495 -865 -493 -915
-616 l-23 -58 -3 -870 c-3 -926 -2 -956 45 -1051 53 -109 66 -117 888 -587
583 -333 781 -442 828 -454 71 -18 152 -13 219 14 56 22 1571 887 1620 925 21
16 49 54 65 86 l28 57 0 970 0 970 -22 41 c-12 22 -37 54 -55 70 -35 31 -1563
910 -1642 945 -53 23 -146 32 -203 18z m167 -635 c47 -14 950 -520 1087 -610
33 -21 62 -51 80 -81 l28 -48 5 -560 5 -560 27 -57 c18 -39 65 -98 155 -193
70 -75 132 -147 137 -160 10 -26 -12 -71 -41 -82 -9 -4 -112 11 -228 32 -138
24 -230 36 -261 33 -41 -4 -118 -44 -489 -256 -477 -273 -516 -290 -627 -278
-31 3 -76 13 -100 23 -24 9 -254 138 -513 286 -336 192 -483 281 -517 314 -58
57 -103 140 -117 217 -14 78 -15 1082 -1 1157 14 74 44 131 99 190 38 40 136
100 553 338 279 159 524 293 545 299 57 15 113 14 173 -4z"/>
</g>
</svg>
